# Blender 4.4.3
# www.blender.org
mtllib box.mtl
o box
v 0.677599 0.677599 -1.000000
v 0.677599 1.000000 -0.677599
v 1.000000 0.677599 -0.677599
v 0.677599 -1.000000 -0.677599
v 0.677599 -0.677599 -1.000000
v 1.000000 -0.677599 -0.677599
v 1.000000 0.677599 0.677599
v 0.677599 1.000000 0.677599
v 0.677599 0.677599 1.000000
v 1.000000 -0.677599 0.677599
v 0.677599 -0.677599 1.000000
v 0.677599 -1.000000 0.677599
v -0.677599 0.677599 -1.000000
v -1.000000 0.677599 -0.677599
v -0.677599 1.000000 -0.677599
v -1.000000 -0.677599 -0.677599
v -0.677599 -0.677599 -1.000000
v -0.677599 -1.000000 -0.677599
v -1.000000 0.677599 0.677599
v -0.677599 0.677599 1.000000
v -0.677599 1.000000 0.677599
v -0.677599 -1.000000 0.677599
v -0.677599 -0.677599 1.000000
v -1.000000 -0.677599 0.677599
v -0.869410 -1.000000 -0.869410
v -0.869410 -1.000000 0.869410
v -1.000000 -0.869410 0.869410
v -1.000000 -0.869410 -0.869410
v 0.869410 -1.000000 -0.869410
v -0.869410 -0.869410 -1.000000
v 0.869410 -0.869410 -1.000000
v 1.000000 0.869410 -0.869410
v 1.000000 -0.869410 -0.869410
v 0.869410 0.869410 -1.000000
v -0.869410 -0.869410 1.000000
v -0.869410 0.869410 1.000000
v -1.000000 0.869410 0.869410
v 0.869410 0.869410 1.000000
v 0.869410 -0.869410 1.000000
v 1.000000 -0.869410 0.869410
v 1.000000 0.869410 0.869410
v -0.869410 0.869410 -1.000000
v -1.000000 0.869410 -0.869410
v 0.869410 1.000000 0.869410
v -0.869410 1.000000 0.869410
v 0.869410 1.000000 -0.869410
v 0.869410 -1.000000 0.869410
v -0.869410 1.000000 -0.869410
v -0.586218 -0.865140 -0.586218
v -0.586218 -0.865140 0.586218
v -0.865140 -0.586218 0.586218
v -0.865140 -0.586218 -0.586218
v 0.586218 -0.865140 -0.586218
v -0.586218 -0.586218 -0.865140
v 0.586218 -0.586218 -0.865140
v 0.865140 0.586218 -0.586218
v 0.865140 -0.586218 -0.586218
v 0.586218 0.586218 -0.865140
v -0.586218 -0.586218 0.865140
v -0.586218 0.586218 0.865140
v -0.865140 0.586218 0.586218
v 0.586218 0.586218 0.865140
v 0.586218 -0.586218 0.865140
v 0.865140 -0.586218 0.586218
v 0.865140 0.586218 0.586218
v -0.586218 0.586218 -0.865140
v -0.865140 0.586218 -0.586218
v 0.586218 0.865140 0.586218
v -0.586218 0.865140 0.586218
v 0.586218 0.865140 -0.586218
v 0.586218 -0.865140 0.586218
v -0.586218 0.865140 -0.586218
v -0.769631 -0.769631 0.769631
v -0.769631 0.769631 0.769631
v -0.769631 -0.769631 -0.769631
v -0.769631 0.769631 -0.769631
v 0.769631 -0.769631 0.769631
v 0.769631 0.769631 0.769631
v 0.769631 -0.769631 -0.769631
v 0.769631 0.769631 -0.769631
vn -0.0000 -0.5609 0.8278
vn 0.5609 -0.0000 -0.8278
vn -0.0000 -0.5609 -0.8279
vn -0.5609 0.8278 -0.0000
vn 0.5609 0.8278 -0.0000
vn 0.5774 0.5774 -0.5774
vn 0.5774 -0.5774 -0.5774
vn 0.5774 0.5774 0.5774
vn 0.5774 -0.5774 0.5774
vn -0.5774 0.5774 -0.5774
vn -0.5774 -0.5774 -0.5774
vn -0.5774 0.5774 0.5774
vn -0.5774 -0.5774 0.5774
vn -0.7071 -0.7071 -0.0000
vn -0.0000 -0.7071 -0.7071
vn 0.7071 -0.0000 -0.7071
vn -0.7071 -0.0000 0.7071
vn 0.7071 -0.0000 0.7071
vn -0.7071 -0.0000 -0.7071
vn -0.0000 0.7071 0.7071
vn 0.7071 0.7071 -0.0000
vn -0.0000 -0.7071 0.7071
vn -0.7071 0.7071 -0.0000
vn -0.0000 0.7071 -0.7071
vn 0.7071 -0.7071 -0.0000
vn -0.8279 -0.0000 0.5609
vn -0.0000 -1.0000 -0.0000
vn -1.0000 -0.0000 -0.0000
vn -0.0000 -0.0000 -1.0000
vn 1.0000 -0.0000 -0.0000
vn -0.0000 -0.0000 1.0000
vn -0.0000 1.0000 -0.0000
vn -0.0000 0.8278 0.5609
vn 0.8278 -0.0000 -0.5609
vn -0.0000 0.8278 -0.5609
vn 0.8278 0.5609 -0.0000
vn -0.5609 -0.0000 0.8278
vn 0.5609 -0.0000 0.8278
vn -0.5609 -0.8279 -0.0000
vn -0.0000 0.5609 -0.8279
vn -0.8279 -0.0000 -0.5609
vn -0.0000 0.5609 0.8278
vn -0.0000 -0.8278 0.5609
vn 0.8278 -0.0000 0.5609
vn -0.0000 -0.8278 -0.5609
vn -0.8278 0.5609 -0.0000
vn -0.5609 -0.0000 -0.8278
vn -0.8278 -0.5609 -0.0000
vn 0.8278 -0.5609 -0.0000
vn 0.5609 -0.8279 -0.0000
vt 0.165300 0.540300
vt 0.334700 0.540300
vt 0.584700 0.709700
vt 0.415300 0.709700
vt 0.334700 0.709700
vt 0.165300 0.709700
vt 0.415300 0.209700
vt 0.415300 0.040300
vt 0.415300 0.540300
vt 0.608676 0.483676
vt 0.625000 0.483676
vt 0.608676 0.500000
vt 0.358676 0.516324
vt 0.358676 0.500000
vt 0.375000 0.516324
vt 0.608676 0.750000
vt 0.625000 0.766324
vt 0.608676 0.766324
vt 0.375000 0.733676
vt 0.358676 0.750000
vt 0.358676 0.733676
vt 0.608676 0.250000
vt 0.608676 0.233676
vt 0.625000 0.233676
vt 0.125000 0.516324
vt 0.141324 0.500000
vt 0.141324 0.516324
vt 0.608676 0.016324
vt 0.608676 0.000000
vt 0.625000 0.016324
vt 0.141324 0.733676
vt 0.141324 0.750000
vt 0.125000 0.733676
vt 0.608676 0.516324
vt 0.391324 0.516324
vt 0.391324 0.483676
vt 0.391324 0.000000
vt 0.391324 0.016324
vt 0.391324 0.766324
vt 0.391324 0.733676
vt 0.608676 0.733676
vt 0.608676 0.266324
vt 0.391324 0.266324
vt 0.391324 0.233676
vt 0.625000 0.983676
vt 0.608676 0.983676
vt 0.641324 0.516324
vt 0.641324 0.733676
vt 0.625000 0.266324
vt 0.415300 0.790300
vt 0.584700 0.790300
vt 0.415300 0.290300
vt 0.415300 0.459700
vt 0.584700 0.540300
vt 0.584700 0.459700
vt 0.415300 0.959700
vt 0.584700 0.959700
vt 0.391324 0.983676
vt 0.584700 0.040300
vt 0.584700 0.290300
vt 0.584700 0.209700
vt 0.665300 0.709700
vt 0.834700 0.709700
vt 0.858676 0.733676
vt 0.665300 0.540300
vt 0.834700 0.540300
vt 0.858676 0.516324
vt 0.375000 0.000000
vt 0.625000 0.000000
vt 0.625000 0.250000
vt 0.375000 0.250000
vt 0.625000 0.500000
vt 0.375000 0.500000
vt 0.625000 0.750000
vt 0.375000 0.750000
vt 0.625000 1.000000
vt 0.375000 1.000000
vt 0.125000 0.500000
vt 0.125000 0.750000
vt 0.875000 0.500000
vt 0.875000 0.750000
s 0
usemtl Material
f 18/1/1 4/2/1 53/2/1 49/1/1
f 7/3/2 10/4/2 64/4/2 65/3/2
f 12/5/3 22/6/3 50/6/3 71/5/3
f 16/7/4 24/8/4 51/8/4 52/7/4
f 10/4/5 6/9/5 57/9/5 64/4/5
f 34/10/6 46/11/6 32/12/6
f 29/13/7 31/14/7 33/15/7
f 41/16/8 44/17/8 38/18/8
f 40/19/9 39/20/9 47/21/9
f 42/22/10 43/23/10 48/24/10
f 28/25/11 30/26/11 25/27/11
f 37/28/12 36/29/12 45/30/12
f 26/31/13 35/32/13 27/33/13
f 25/27/14 26/31/14 27/33/14 28/25/14
f 29/13/15 25/27/15 30/26/15 31/14/15
f 32/34/16 33/35/16 31/36/16 34/10/16
f 35/37/17 36/29/17 37/28/17 27/38/17
f 38/18/18 39/39/18 40/40/18 41/41/18
f 42/42/19 30/43/19 28/44/19 43/23/19
f 44/17/20 45/45/20 36/46/20 38/18/20
f 46/47/21 44/48/21 41/41/21 32/34/21
f 26/31/22 47/21/22 39/20/22 35/32/22
f 45/30/23 48/24/23 43/23/23 37/28/23
f 48/49/24 46/11/24 34/10/24 42/42/24
f 47/21/25 29/13/25 33/35/25 40/40/25
f 11/50/26 9/51/26 62/51/26 63/50/26
f 18/1/27 22/6/27 26/31/27 25/27/27
f 24/8/28 16/7/28 28/44/28 27/38/28
f 4/2/27 18/1/27 25/27/27 29/13/27
f 17/52/29 5/53/29 31/36/29 30/43/29
f 3/54/30 6/9/30 33/35/30 32/34/30
f 5/53/29 1/55/29 34/10/29 31/36/29
f 23/56/31 20/57/31 36/46/31 35/58/31
f 19/59/28 24/8/28 27/38/28 37/28/28
f 9/51/31 11/50/31 39/39/31 38/18/31
f 10/4/30 7/3/30 41/41/30 40/40/30
f 13/60/29 17/52/29 30/43/29 42/42/29
f 16/7/28 14/61/28 43/23/28 28/44/28
f 8/62/32 21/63/32 45/64/32 44/48/32
f 20/57/31 9/51/31 38/18/31 36/46/31
f 2/65/32 8/62/32 44/48/32 46/47/32
f 7/3/30 3/54/30 32/34/30 41/41/30
f 22/6/27 12/5/27 47/21/27 26/31/27
f 11/50/31 23/56/31 35/58/31 39/39/31
f 21/63/32 15/66/32 48/67/32 45/64/32
f 14/61/28 19/59/28 37/28/28 43/23/28
f 15/66/32 2/65/32 46/47/32 48/67/32
f 1/55/29 13/60/29 42/42/29 34/10/29
f 12/5/27 4/2/27 29/13/27 47/21/27
f 6/9/30 10/4/30 40/40/30 33/35/30
f 49/1/27 53/2/27 71/5/27 50/6/27
f 51/8/28 61/59/28 67/61/28 52/7/28
f 63/50/31 62/51/31 60/57/31 59/56/31
f 70/65/32 72/66/32 69/63/32 68/62/32
f 57/9/30 56/54/30 65/3/30 64/4/30
f 54/52/29 66/60/29 58/55/29 55/53/29
f 23/56/33 11/50/33 63/50/33 59/56/33
f 17/52/34 13/60/34 66/60/34 54/52/34
f 5/53/35 17/52/35 54/52/35 55/53/35
f 15/66/36 21/63/36 69/63/36 72/66/36
f 14/61/37 16/7/37 52/7/37 67/61/37
f 6/9/38 3/54/38 56/54/38 57/9/38
f 19/59/39 14/61/39 67/61/39 61/59/39
f 21/63/40 8/62/40 68/62/40 69/63/40
f 1/55/41 5/53/41 55/53/41 58/55/41
f 2/65/42 15/66/42 72/66/42 70/65/42
f 9/51/43 20/57/43 60/57/43 62/51/43
f 20/57/44 23/56/44 59/56/44 60/57/44
f 13/60/45 1/55/45 58/55/45 66/60/45
f 8/62/46 2/65/46 70/65/46 68/62/46
f 24/8/47 19/59/47 61/59/47 51/8/47
f 4/2/48 12/5/48 71/5/48 53/2/48
f 22/6/49 18/1/49 49/1/49 50/6/49
f 3/54/50 7/3/50 65/3/50 56/54/50
f 73/68/28 74/69/28 76/70/28 75/71/28
f 75/71/29 76/70/29 80/72/29 79/73/29
f 79/73/30 80/72/30 78/74/30 77/75/30
f 77/75/31 78/74/31 74/76/31 73/77/31
f 75/78/27 79/73/27 77/75/27 73/79/27
f 80/72/32 76/80/32 74/81/32 78/74/32
